<svg width="219" height="40" viewBox="0 0 219 40" fill="none" xmlns="http://www.w3.org/2000/svg">
<path fill-rule="evenodd" clip-rule="evenodd" d="M-2.62268e-07 34C-1.17422e-07 37.3137 2.68629 40 6 40L34 40C37.3137 40 40 37.3137 40 34L40 19.5557C37.6181 21.4651 34.5946 22.6072 31.3043 22.6072C23.6204 22.6072 17.3913 16.3781 17.3913 8.69414C17.3913 5.40459 18.5329 2.38168 20.4416 6.73586e-06L6 7.36713e-06C2.68629 7.51197e-06 -1.63103e-06 2.6863 -1.48619e-06 6L-2.62268e-07 34Z" fill="#AF51C5"/>
<path fill-rule="evenodd" clip-rule="evenodd" d="M-2.62268e-07 34C-1.17422e-07 37.3137 2.68629 40 6 40L34 40C37.3137 40 40 37.3137 40 34L40 19.5557C37.6181 21.4651 34.5946 22.6072 31.3043 22.6072C23.6204 22.6072 17.3913 16.3781 17.3913 8.69414C17.3913 5.40459 18.5329 2.38168 20.4416 6.73586e-06L6 7.36713e-06C2.68629 7.51197e-06 -1.63103e-06 2.6863 -1.48619e-06 6L-2.62268e-07 34Z" fill="url(#paint0_linear_1_146)"/>
<circle cx="31.3043" cy="8.69656" r="6.95652" transform="rotate(-90 31.3043 8.69656)" fill="#AF51C5"/>
<path d="M64.324 27.946C64.6187 27.946 64.87 28.05 65.078 28.258C65.286 28.4487 65.39 28.6913 65.39 28.986C65.39 29.2807 65.286 29.5233 65.078 29.714C64.87 29.9047 64.6187 30 64.324 30H55.328C55.0333 30 54.782 29.896 54.574 29.688C54.3833 29.48 54.288 29.2287 54.288 28.934V12.84C54.288 12.5453 54.392 12.3027 54.6 12.112C54.808 11.904 55.068 11.8 55.38 11.8C55.6747 11.8 55.926 11.904 56.134 12.112C56.342 12.3027 56.446 12.5453 56.446 12.84V28.414L55.926 27.946H64.324ZM78.0778 16.558C78.3898 16.558 78.6411 16.662 78.8318 16.87C79.0225 17.0607 79.1178 17.3033 79.1178 17.598V24.696C79.1178 26.4467 78.6238 27.8073 77.6358 28.778C76.6651 29.7313 75.3045 30.208 73.5538 30.208C71.8205 30.208 70.4598 29.7313 69.4718 28.778C68.5011 27.8073 68.0158 26.4467 68.0158 24.696V17.598C68.0158 17.3033 68.1111 17.0607 68.3018 16.87C68.5098 16.662 68.7611 16.558 69.0558 16.558C69.3678 16.558 69.6191 16.662 69.8098 16.87C70.0005 17.0607 70.0958 17.3033 70.0958 17.598V24.696C70.0958 25.8747 70.3991 26.7673 71.0058 27.374C71.6125 27.9807 72.4618 28.284 73.5538 28.284C74.6805 28.284 75.5385 27.9807 76.1278 27.374C76.7345 26.7673 77.0378 25.8747 77.0378 24.696V17.598C77.0378 17.3033 77.1331 17.0607 77.3238 16.87C77.5318 16.662 77.7831 16.558 78.0778 16.558ZM89.6529 16.22C90.8315 16.22 91.7589 16.4627 92.4349 16.948C93.1109 17.4333 93.5875 18.0833 93.8649 18.898C94.1595 19.7127 94.3069 20.6227 94.3069 21.628V28.934C94.3069 29.2287 94.2029 29.48 93.9949 29.688C93.8042 29.896 93.5615 30 93.2669 30C92.9722 30 92.7209 29.896 92.5129 29.688C92.3222 29.48 92.2269 29.2287 92.2269 28.934V21.68C92.2269 21.0213 92.1229 20.432 91.9149 19.912C91.7242 19.3747 91.3949 18.95 90.9269 18.638C90.4762 18.3087 89.8522 18.144 89.0549 18.144C88.3269 18.144 87.6595 18.3087 87.0529 18.638C86.4462 18.95 85.9609 19.3747 85.5969 19.912C85.2329 20.432 85.0509 21.0213 85.0509 21.68V28.934C85.0509 29.2287 84.9469 29.48 84.7389 29.688C84.5482 29.896 84.3055 30 84.0109 30C83.7162 30 83.4649 29.896 83.2569 29.688C83.0662 29.48 82.9709 29.2287 82.9709 28.934V17.598C82.9709 17.3033 83.0662 17.0607 83.2569 16.87C83.4649 16.662 83.7162 16.558 84.0109 16.558C84.3229 16.558 84.5742 16.662 84.7649 16.87C84.9555 17.0607 85.0509 17.3033 85.0509 17.598V19.444L84.5309 20.016C84.6175 19.5653 84.8169 19.1147 85.1289 18.664C85.4409 18.196 85.8309 17.78 86.2989 17.416C86.7669 17.052 87.2869 16.766 87.8589 16.558C88.4309 16.3327 89.0289 16.22 89.6529 16.22ZM104.134 16.22C105.018 16.22 105.816 16.3153 106.526 16.506C107.237 16.6967 107.8 16.9567 108.216 17.286C108.632 17.6153 108.84 17.988 108.84 18.404C108.84 18.6293 108.762 18.846 108.606 19.054C108.45 19.262 108.242 19.366 107.982 19.366C107.74 19.366 107.54 19.3227 107.384 19.236C107.246 19.1493 107.107 19.0367 106.968 18.898C106.847 18.7593 106.674 18.638 106.448 18.534C106.24 18.4127 105.937 18.3173 105.538 18.248C105.14 18.1787 104.741 18.144 104.342 18.144C103.389 18.144 102.548 18.3693 101.82 18.82C101.11 19.2707 100.546 19.8773 100.13 20.64C99.7145 21.4027 99.5065 22.2693 99.5065 23.24C99.5065 24.2107 99.7058 25.0773 100.104 25.84C100.503 26.6027 101.058 27.2093 101.768 27.66C102.479 28.1107 103.302 28.336 104.238 28.336C104.845 28.336 105.33 28.284 105.694 28.18C106.058 28.076 106.362 27.9547 106.604 27.816C106.916 27.6427 107.15 27.4693 107.306 27.296C107.48 27.1227 107.705 27.036 107.982 27.036C108.277 27.036 108.502 27.1313 108.658 27.322C108.832 27.5127 108.918 27.7467 108.918 28.024C108.918 28.336 108.702 28.6653 108.268 29.012C107.835 29.3587 107.246 29.6533 106.5 29.896C105.772 30.1387 104.94 30.26 104.004 30.26C102.687 30.26 101.534 29.9567 100.546 29.35C99.5585 28.726 98.7871 27.8853 98.2325 26.828C97.6951 25.7533 97.4265 24.5573 97.4265 23.24C97.4265 21.9227 97.7038 20.7353 98.2585 19.678C98.8305 18.6207 99.6191 17.78 100.624 17.156C101.63 16.532 102.8 16.22 104.134 16.22ZM118.137 16.35C119.281 16.35 120.182 16.6013 120.841 17.104C121.517 17.5893 121.994 18.248 122.271 19.08C122.566 19.8947 122.713 20.8047 122.713 21.81V28.934C122.713 29.2287 122.609 29.48 122.401 29.688C122.21 29.896 121.968 30 121.673 30C121.378 30 121.127 29.896 120.919 29.688C120.728 29.48 120.633 29.2287 120.633 28.934V21.81C120.633 21.1513 120.538 20.562 120.347 20.042C120.156 19.5047 119.836 19.08 119.385 18.768C118.952 18.4387 118.354 18.274 117.591 18.274C116.88 18.274 116.23 18.4387 115.641 18.768C115.052 19.08 114.584 19.5047 114.237 20.042C113.89 20.562 113.717 21.1513 113.717 21.81V28.934C113.717 29.2287 113.613 29.48 113.405 29.688C113.214 29.896 112.972 30 112.677 30C112.382 30 112.131 29.896 111.923 29.688C111.732 29.48 111.637 29.2287 111.637 28.934V11.8C111.637 11.5053 111.732 11.2627 111.923 11.072C112.131 10.864 112.382 10.76 112.677 10.76C112.989 10.76 113.24 10.864 113.431 11.072C113.622 11.2627 113.717 11.5053 113.717 11.8V19.574L113.197 20.146C113.284 19.6953 113.474 19.2447 113.769 18.794C114.064 18.326 114.436 17.91 114.887 17.546C115.338 17.182 115.84 16.896 116.395 16.688C116.95 16.4627 117.53 16.35 118.137 16.35ZM133.197 16.35C134.375 16.35 135.433 16.6447 136.369 17.234C137.305 17.8233 138.041 18.638 138.579 19.678C139.133 20.718 139.411 21.914 139.411 23.266C139.411 24.6007 139.133 25.7967 138.579 26.854C138.041 27.894 137.305 28.7173 136.369 29.324C135.45 29.9133 134.41 30.208 133.249 30.208C132.607 30.208 132.001 30.1127 131.429 29.922C130.874 29.714 130.363 29.454 129.895 29.142C129.444 28.8127 129.063 28.4487 128.751 28.05C128.439 27.634 128.213 27.2267 128.075 26.828L128.647 26.464V34.134C128.647 34.4287 128.551 34.68 128.361 34.888C128.17 35.096 127.919 35.2 127.607 35.2C127.312 35.2 127.061 35.096 126.853 34.888C126.662 34.6973 126.567 34.446 126.567 34.134V17.52C126.567 17.2253 126.662 16.9827 126.853 16.792C127.061 16.584 127.312 16.48 127.607 16.48C127.919 16.48 128.17 16.584 128.361 16.792C128.551 16.9827 128.647 17.2253 128.647 17.52V19.834L128.257 19.626C128.378 19.1927 128.586 18.7767 128.881 18.378C129.193 17.9793 129.565 17.6327 129.999 17.338C130.449 17.026 130.943 16.7833 131.481 16.61C132.035 16.4367 132.607 16.35 133.197 16.35ZM132.963 18.274C132.096 18.274 131.325 18.4907 130.649 18.924C129.99 19.3573 129.47 19.9467 129.089 20.692C128.725 21.4373 128.543 22.2953 128.543 23.266C128.543 24.2193 128.725 25.0773 129.089 25.84C129.47 26.6027 129.99 27.2007 130.649 27.634C131.325 28.0673 132.096 28.284 132.963 28.284C133.829 28.284 134.592 28.0673 135.251 27.634C135.909 27.2007 136.429 26.6027 136.811 25.84C137.192 25.0773 137.383 24.2193 137.383 23.266C137.383 22.2953 137.192 21.4373 136.811 20.692C136.429 19.9467 135.909 19.3573 135.251 18.924C134.592 18.4907 133.829 18.274 132.963 18.274ZM144.539 28.934C144.539 29.2287 144.435 29.48 144.227 29.688C144.037 29.896 143.794 30 143.499 30C143.187 30 142.936 29.896 142.745 29.688C142.555 29.48 142.459 29.2287 142.459 28.934V17.39C142.459 17.0953 142.555 16.8527 142.745 16.662C142.953 16.454 143.205 16.35 143.499 16.35C143.794 16.35 144.037 16.454 144.227 16.662C144.435 16.8527 144.539 17.0953 144.539 17.39V28.934ZM143.499 14.608C143.066 14.608 142.745 14.5213 142.537 14.348C142.329 14.1747 142.225 13.906 142.225 13.542V13.178C142.225 12.814 142.338 12.5453 142.563 12.372C142.789 12.1987 143.109 12.112 143.525 12.112C143.941 12.112 144.253 12.1987 144.461 12.372C144.669 12.5453 144.773 12.814 144.773 13.178V13.542C144.773 13.906 144.661 14.1747 144.435 14.348C144.227 14.5213 143.915 14.608 143.499 14.608ZM149.316 30C149.021 30 148.77 29.896 148.562 29.688C148.371 29.48 148.276 29.2287 148.276 28.934V17.598C148.276 17.3033 148.371 17.0607 148.562 16.87C148.77 16.662 149.021 16.558 149.316 16.558C149.628 16.558 149.879 16.662 150.07 16.87C150.26 17.0607 150.356 17.3033 150.356 17.598V21.03L150.044 20.484C150.148 19.9467 150.33 19.4267 150.59 18.924C150.867 18.404 151.214 17.9447 151.63 17.546C152.046 17.13 152.522 16.8093 153.06 16.584C153.597 16.3413 154.186 16.22 154.828 16.22C155.209 16.22 155.556 16.3153 155.868 16.506C156.197 16.6793 156.362 16.9307 156.362 17.26C156.362 17.624 156.266 17.8927 156.076 18.066C155.885 18.2393 155.668 18.326 155.426 18.326C155.2 18.326 154.984 18.2827 154.776 18.196C154.568 18.092 154.308 18.04 153.996 18.04C153.562 18.04 153.129 18.1613 152.696 18.404C152.28 18.6293 151.89 18.9587 151.526 19.392C151.179 19.8253 150.893 20.3193 150.668 20.874C150.46 21.4113 150.356 21.992 150.356 22.616V28.934C150.356 29.2287 150.252 29.48 150.044 29.688C149.853 29.896 149.61 30 149.316 30ZM169.482 16.428C169.777 16.428 170.02 16.532 170.21 16.74C170.418 16.9307 170.522 17.1733 170.522 17.468V28.934C170.522 29.2287 170.418 29.48 170.21 29.688C170.02 29.896 169.777 30 169.482 30C169.17 30 168.919 29.896 168.728 29.688C168.538 29.48 168.442 29.2287 168.442 28.934V26.464L168.936 26.412C168.936 26.7933 168.806 27.2093 168.546 27.66C168.286 28.1107 167.931 28.5353 167.48 28.934C167.03 29.3153 166.492 29.636 165.868 29.896C165.262 30.1387 164.603 30.26 163.892 30.26C162.714 30.26 161.656 29.9567 160.72 29.35C159.784 28.726 159.039 27.8853 158.484 26.828C157.947 25.7707 157.678 24.566 157.678 23.214C157.678 21.8447 157.947 20.64 158.484 19.6C159.039 18.5427 159.784 17.7193 160.72 17.13C161.656 16.5233 162.696 16.22 163.84 16.22C164.586 16.22 165.279 16.3413 165.92 16.584C166.562 16.8267 167.116 17.156 167.584 17.572C168.07 17.988 168.442 18.4473 168.702 18.95C168.98 19.4527 169.118 19.9553 169.118 20.458L168.442 20.302V17.468C168.442 17.1733 168.538 16.9307 168.728 16.74C168.919 16.532 169.17 16.428 169.482 16.428ZM164.126 28.336C164.993 28.336 165.756 28.1107 166.414 27.66C167.09 27.2093 167.61 26.6027 167.974 25.84C168.356 25.06 168.546 24.1847 168.546 23.214C168.546 22.2607 168.356 21.4027 167.974 20.64C167.61 19.86 167.09 19.2533 166.414 18.82C165.756 18.3693 164.993 18.144 164.126 18.144C163.277 18.144 162.514 18.3607 161.838 18.794C161.18 19.2273 160.66 19.8253 160.278 20.588C159.897 21.3507 159.706 22.226 159.706 23.214C159.706 24.1847 159.888 25.06 160.252 25.84C160.634 26.6027 161.154 27.2093 161.812 27.66C162.488 28.1107 163.26 28.336 164.126 28.336ZM173.857 16.636H179.967C180.244 16.636 180.47 16.7313 180.643 16.922C180.834 17.1127 180.929 17.338 180.929 17.598C180.929 17.8753 180.834 18.1093 180.643 18.3C180.47 18.4733 180.244 18.56 179.967 18.56H173.857C173.597 18.56 173.372 18.4647 173.181 18.274C172.99 18.0833 172.895 17.8493 172.895 17.572C172.895 17.312 172.99 17.0953 173.181 16.922C173.372 16.7313 173.597 16.636 173.857 16.636ZM176.587 13.1C176.882 13.1 177.124 13.204 177.315 13.412C177.506 13.6027 177.601 13.8453 177.601 14.14V26.698C177.601 27.114 177.662 27.426 177.783 27.634C177.904 27.842 178.06 27.9893 178.251 28.076C178.459 28.1453 178.658 28.18 178.849 28.18C179.022 28.18 179.17 28.154 179.291 28.102C179.43 28.0327 179.586 27.998 179.759 27.998C179.932 27.998 180.088 28.0847 180.227 28.258C180.383 28.414 180.461 28.622 180.461 28.882C180.461 29.194 180.279 29.4627 179.915 29.688C179.551 29.896 179.144 30 178.693 30C178.45 30 178.147 29.9827 177.783 29.948C177.436 29.9133 177.09 29.8007 176.743 29.61C176.396 29.4193 176.102 29.1073 175.859 28.674C175.634 28.2233 175.521 27.5993 175.521 26.802V14.14C175.521 13.8453 175.625 13.6027 175.833 13.412C176.041 13.204 176.292 13.1 176.587 13.1ZM185.824 28.934C185.824 29.2287 185.72 29.48 185.512 29.688C185.322 29.896 185.079 30 184.784 30C184.472 30 184.221 29.896 184.03 29.688C183.84 29.48 183.744 29.2287 183.744 28.934V17.39C183.744 17.0953 183.84 16.8527 184.03 16.662C184.238 16.454 184.49 16.35 184.784 16.35C185.079 16.35 185.322 16.454 185.512 16.662C185.72 16.8527 185.824 17.0953 185.824 17.39V28.934ZM184.784 14.608C184.351 14.608 184.03 14.5213 183.822 14.348C183.614 14.1747 183.51 13.906 183.51 13.542V13.178C183.51 12.814 183.623 12.5453 183.848 12.372C184.074 12.1987 184.394 12.112 184.81 12.112C185.226 12.112 185.538 12.1987 185.746 12.372C185.954 12.5453 186.058 12.814 186.058 13.178V13.542C186.058 13.906 185.946 14.1747 185.72 14.348C185.512 14.5213 185.2 14.608 184.784 14.608ZM202.327 23.24C202.327 24.592 202.023 25.7967 201.417 26.854C200.827 27.9113 200.021 28.7433 198.999 29.35C197.993 29.9567 196.858 30.26 195.593 30.26C194.327 30.26 193.183 29.9567 192.161 29.35C191.138 28.7433 190.323 27.9113 189.717 26.854C189.127 25.7967 188.833 24.592 188.833 23.24C188.833 21.888 189.127 20.6833 189.717 19.626C190.323 18.5687 191.138 17.7367 192.161 17.13C193.183 16.5233 194.327 16.22 195.593 16.22C196.858 16.22 197.993 16.5233 198.999 17.13C200.021 17.7367 200.827 18.5687 201.417 19.626C202.023 20.6833 202.327 21.888 202.327 23.24ZM200.247 23.24C200.247 22.2347 200.039 21.3507 199.623 20.588C199.224 19.8253 198.669 19.2273 197.959 18.794C197.265 18.3607 196.477 18.144 195.593 18.144C194.709 18.144 193.911 18.3607 193.201 18.794C192.507 19.2273 191.953 19.8253 191.537 20.588C191.121 21.3507 190.913 22.2347 190.913 23.24C190.913 24.228 191.121 25.1033 191.537 25.866C191.953 26.6287 192.507 27.2353 193.201 27.686C193.911 28.1193 194.709 28.336 195.593 28.336C196.477 28.336 197.265 28.1193 197.959 27.686C198.669 27.2353 199.224 26.6287 199.623 25.866C200.039 25.1033 200.247 24.228 200.247 23.24ZM212.137 16.22C213.316 16.22 214.243 16.4627 214.919 16.948C215.595 17.4333 216.072 18.0833 216.349 18.898C216.644 19.7127 216.791 20.6227 216.791 21.628V28.934C216.791 29.2287 216.687 29.48 216.479 29.688C216.289 29.896 216.046 30 215.751 30C215.457 30 215.205 29.896 214.997 29.688C214.807 29.48 214.711 29.2287 214.711 28.934V21.68C214.711 21.0213 214.607 20.432 214.399 19.912C214.209 19.3747 213.879 18.95 213.411 18.638C212.961 18.3087 212.337 18.144 211.539 18.144C210.811 18.144 210.144 18.3087 209.537 18.638C208.931 18.95 208.445 19.3747 208.081 19.912C207.717 20.432 207.535 21.0213 207.535 21.68V28.934C207.535 29.2287 207.431 29.48 207.223 29.688C207.033 29.896 206.79 30 206.495 30C206.201 30 205.949 29.896 205.741 29.688C205.551 29.48 205.455 29.2287 205.455 28.934V17.598C205.455 17.3033 205.551 17.0607 205.741 16.87C205.949 16.662 206.201 16.558 206.495 16.558C206.807 16.558 207.059 16.662 207.249 16.87C207.44 17.0607 207.535 17.3033 207.535 17.598V19.444L207.015 20.016C207.102 19.5653 207.301 19.1147 207.613 18.664C207.925 18.196 208.315 17.78 208.783 17.416C209.251 17.052 209.771 16.766 210.343 16.558C210.915 16.3327 211.513 16.22 212.137 16.22Z" fill="#F9FAFB"/>
<path d="M64.324 27.946C64.6187 27.946 64.87 28.05 65.078 28.258C65.286 28.4487 65.39 28.6913 65.39 28.986C65.39 29.2807 65.286 29.5233 65.078 29.714C64.87 29.9047 64.6187 30 64.324 30H55.328C55.0333 30 54.782 29.896 54.574 29.688C54.3833 29.48 54.288 29.2287 54.288 28.934V12.84C54.288 12.5453 54.392 12.3027 54.6 12.112C54.808 11.904 55.068 11.8 55.38 11.8C55.6747 11.8 55.926 11.904 56.134 12.112C56.342 12.3027 56.446 12.5453 56.446 12.84V28.414L55.926 27.946H64.324ZM78.0778 16.558C78.3898 16.558 78.6411 16.662 78.8318 16.87C79.0225 17.0607 79.1178 17.3033 79.1178 17.598V24.696C79.1178 26.4467 78.6238 27.8073 77.6358 28.778C76.6651 29.7313 75.3045 30.208 73.5538 30.208C71.8205 30.208 70.4598 29.7313 69.4718 28.778C68.5011 27.8073 68.0158 26.4467 68.0158 24.696V17.598C68.0158 17.3033 68.1111 17.0607 68.3018 16.87C68.5098 16.662 68.7611 16.558 69.0558 16.558C69.3678 16.558 69.6191 16.662 69.8098 16.87C70.0005 17.0607 70.0958 17.3033 70.0958 17.598V24.696C70.0958 25.8747 70.3991 26.7673 71.0058 27.374C71.6125 27.9807 72.4618 28.284 73.5538 28.284C74.6805 28.284 75.5385 27.9807 76.1278 27.374C76.7345 26.7673 77.0378 25.8747 77.0378 24.696V17.598C77.0378 17.3033 77.1331 17.0607 77.3238 16.87C77.5318 16.662 77.7831 16.558 78.0778 16.558ZM89.6529 16.22C90.8315 16.22 91.7589 16.4627 92.4349 16.948C93.1109 17.4333 93.5875 18.0833 93.8649 18.898C94.1595 19.7127 94.3069 20.6227 94.3069 21.628V28.934C94.3069 29.2287 94.2029 29.48 93.9949 29.688C93.8042 29.896 93.5615 30 93.2669 30C92.9722 30 92.7209 29.896 92.5129 29.688C92.3222 29.48 92.2269 29.2287 92.2269 28.934V21.68C92.2269 21.0213 92.1229 20.432 91.9149 19.912C91.7242 19.3747 91.3949 18.95 90.9269 18.638C90.4762 18.3087 89.8522 18.144 89.0549 18.144C88.3269 18.144 87.6595 18.3087 87.0529 18.638C86.4462 18.95 85.9609 19.3747 85.5969 19.912C85.2329 20.432 85.0509 21.0213 85.0509 21.68V28.934C85.0509 29.2287 84.9469 29.48 84.7389 29.688C84.5482 29.896 84.3055 30 84.0109 30C83.7162 30 83.4649 29.896 83.2569 29.688C83.0662 29.48 82.9709 29.2287 82.9709 28.934V17.598C82.9709 17.3033 83.0662 17.0607 83.2569 16.87C83.4649 16.662 83.7162 16.558 84.0109 16.558C84.3229 16.558 84.5742 16.662 84.7649 16.87C84.9555 17.0607 85.0509 17.3033 85.0509 17.598V19.444L84.5309 20.016C84.6175 19.5653 84.8169 19.1147 85.1289 18.664C85.4409 18.196 85.8309 17.78 86.2989 17.416C86.7669 17.052 87.2869 16.766 87.8589 16.558C88.4309 16.3327 89.0289 16.22 89.6529 16.22ZM104.134 16.22C105.018 16.22 105.816 16.3153 106.526 16.506C107.237 16.6967 107.8 16.9567 108.216 17.286C108.632 17.6153 108.84 17.988 108.84 18.404C108.84 18.6293 108.762 18.846 108.606 19.054C108.45 19.262 108.242 19.366 107.982 19.366C107.74 19.366 107.54 19.3227 107.384 19.236C107.246 19.1493 107.107 19.0367 106.968 18.898C106.847 18.7593 106.674 18.638 106.448 18.534C106.24 18.4127 105.937 18.3173 105.538 18.248C105.14 18.1787 104.741 18.144 104.342 18.144C103.389 18.144 102.548 18.3693 101.82 18.82C101.11 19.2707 100.546 19.8773 100.13 20.64C99.7145 21.4027 99.5065 22.2693 99.5065 23.24C99.5065 24.2107 99.7058 25.0773 100.104 25.84C100.503 26.6027 101.058 27.2093 101.768 27.66C102.479 28.1107 103.302 28.336 104.238 28.336C104.845 28.336 105.33 28.284 105.694 28.18C106.058 28.076 106.362 27.9547 106.604 27.816C106.916 27.6427 107.15 27.4693 107.306 27.296C107.48 27.1227 107.705 27.036 107.982 27.036C108.277 27.036 108.502 27.1313 108.658 27.322C108.832 27.5127 108.918 27.7467 108.918 28.024C108.918 28.336 108.702 28.6653 108.268 29.012C107.835 29.3587 107.246 29.6533 106.5 29.896C105.772 30.1387 104.94 30.26 104.004 30.26C102.687 30.26 101.534 29.9567 100.546 29.35C99.5585 28.726 98.7871 27.8853 98.2325 26.828C97.6951 25.7533 97.4265 24.5573 97.4265 23.24C97.4265 21.9227 97.7038 20.7353 98.2585 19.678C98.8305 18.6207 99.6191 17.78 100.624 17.156C101.63 16.532 102.8 16.22 104.134 16.22ZM118.137 16.35C119.281 16.35 120.182 16.6013 120.841 17.104C121.517 17.5893 121.994 18.248 122.271 19.08C122.566 19.8947 122.713 20.8047 122.713 21.81V28.934C122.713 29.2287 122.609 29.48 122.401 29.688C122.21 29.896 121.968 30 121.673 30C121.378 30 121.127 29.896 120.919 29.688C120.728 29.48 120.633 29.2287 120.633 28.934V21.81C120.633 21.1513 120.538 20.562 120.347 20.042C120.156 19.5047 119.836 19.08 119.385 18.768C118.952 18.4387 118.354 18.274 117.591 18.274C116.88 18.274 116.23 18.4387 115.641 18.768C115.052 19.08 114.584 19.5047 114.237 20.042C113.89 20.562 113.717 21.1513 113.717 21.81V28.934C113.717 29.2287 113.613 29.48 113.405 29.688C113.214 29.896 112.972 30 112.677 30C112.382 30 112.131 29.896 111.923 29.688C111.732 29.48 111.637 29.2287 111.637 28.934V11.8C111.637 11.5053 111.732 11.2627 111.923 11.072C112.131 10.864 112.382 10.76 112.677 10.76C112.989 10.76 113.24 10.864 113.431 11.072C113.622 11.2627 113.717 11.5053 113.717 11.8V19.574L113.197 20.146C113.284 19.6953 113.474 19.2447 113.769 18.794C114.064 18.326 114.436 17.91 114.887 17.546C115.338 17.182 115.84 16.896 116.395 16.688C116.95 16.4627 117.53 16.35 118.137 16.35ZM133.197 16.35C134.375 16.35 135.433 16.6447 136.369 17.234C137.305 17.8233 138.041 18.638 138.579 19.678C139.133 20.718 139.411 21.914 139.411 23.266C139.411 24.6007 139.133 25.7967 138.579 26.854C138.041 27.894 137.305 28.7173 136.369 29.324C135.45 29.9133 134.41 30.208 133.249 30.208C132.607 30.208 132.001 30.1127 131.429 29.922C130.874 29.714 130.363 29.454 129.895 29.142C129.444 28.8127 129.063 28.4487 128.751 28.05C128.439 27.634 128.213 27.2267 128.075 26.828L128.647 26.464V34.134C128.647 34.4287 128.551 34.68 128.361 34.888C128.17 35.096 127.919 35.2 127.607 35.2C127.312 35.2 127.061 35.096 126.853 34.888C126.662 34.6973 126.567 34.446 126.567 34.134V17.52C126.567 17.2253 126.662 16.9827 126.853 16.792C127.061 16.584 127.312 16.48 127.607 16.48C127.919 16.48 128.17 16.584 128.361 16.792C128.551 16.9827 128.647 17.2253 128.647 17.52V19.834L128.257 19.626C128.378 19.1927 128.586 18.7767 128.881 18.378C129.193 17.9793 129.565 17.6327 129.999 17.338C130.449 17.026 130.943 16.7833 131.481 16.61C132.035 16.4367 132.607 16.35 133.197 16.35ZM132.963 18.274C132.096 18.274 131.325 18.4907 130.649 18.924C129.99 19.3573 129.47 19.9467 129.089 20.692C128.725 21.4373 128.543 22.2953 128.543 23.266C128.543 24.2193 128.725 25.0773 129.089 25.84C129.47 26.6027 129.99 27.2007 130.649 27.634C131.325 28.0673 132.096 28.284 132.963 28.284C133.829 28.284 134.592 28.0673 135.251 27.634C135.909 27.2007 136.429 26.6027 136.811 25.84C137.192 25.0773 137.383 24.2193 137.383 23.266C137.383 22.2953 137.192 21.4373 136.811 20.692C136.429 19.9467 135.909 19.3573 135.251 18.924C134.592 18.4907 133.829 18.274 132.963 18.274ZM144.539 28.934C144.539 29.2287 144.435 29.48 144.227 29.688C144.037 29.896 143.794 30 143.499 30C143.187 30 142.936 29.896 142.745 29.688C142.555 29.48 142.459 29.2287 142.459 28.934V17.39C142.459 17.0953 142.555 16.8527 142.745 16.662C142.953 16.454 143.205 16.35 143.499 16.35C143.794 16.35 144.037 16.454 144.227 16.662C144.435 16.8527 144.539 17.0953 144.539 17.39V28.934ZM143.499 14.608C143.066 14.608 142.745 14.5213 142.537 14.348C142.329 14.1747 142.225 13.906 142.225 13.542V13.178C142.225 12.814 142.338 12.5453 142.563 12.372C142.789 12.1987 143.109 12.112 143.525 12.112C143.941 12.112 144.253 12.1987 144.461 12.372C144.669 12.5453 144.773 12.814 144.773 13.178V13.542C144.773 13.906 144.661 14.1747 144.435 14.348C144.227 14.5213 143.915 14.608 143.499 14.608ZM149.316 30C149.021 30 148.77 29.896 148.562 29.688C148.371 29.48 148.276 29.2287 148.276 28.934V17.598C148.276 17.3033 148.371 17.0607 148.562 16.87C148.77 16.662 149.021 16.558 149.316 16.558C149.628 16.558 149.879 16.662 150.07 16.87C150.26 17.0607 150.356 17.3033 150.356 17.598V21.03L150.044 20.484C150.148 19.9467 150.33 19.4267 150.59 18.924C150.867 18.404 151.214 17.9447 151.63 17.546C152.046 17.13 152.522 16.8093 153.06 16.584C153.597 16.3413 154.186 16.22 154.828 16.22C155.209 16.22 155.556 16.3153 155.868 16.506C156.197 16.6793 156.362 16.9307 156.362 17.26C156.362 17.624 156.266 17.8927 156.076 18.066C155.885 18.2393 155.668 18.326 155.426 18.326C155.2 18.326 154.984 18.2827 154.776 18.196C154.568 18.092 154.308 18.04 153.996 18.04C153.562 18.04 153.129 18.1613 152.696 18.404C152.28 18.6293 151.89 18.9587 151.526 19.392C151.179 19.8253 150.893 20.3193 150.668 20.874C150.46 21.4113 150.356 21.992 150.356 22.616V28.934C150.356 29.2287 150.252 29.48 150.044 29.688C149.853 29.896 149.61 30 149.316 30ZM169.482 16.428C169.777 16.428 170.02 16.532 170.21 16.74C170.418 16.9307 170.522 17.1733 170.522 17.468V28.934C170.522 29.2287 170.418 29.48 170.21 29.688C170.02 29.896 169.777 30 169.482 30C169.17 30 168.919 29.896 168.728 29.688C168.538 29.48 168.442 29.2287 168.442 28.934V26.464L168.936 26.412C168.936 26.7933 168.806 27.2093 168.546 27.66C168.286 28.1107 167.931 28.5353 167.48 28.934C167.03 29.3153 166.492 29.636 165.868 29.896C165.262 30.1387 164.603 30.26 163.892 30.26C162.714 30.26 161.656 29.9567 160.72 29.35C159.784 28.726 159.039 27.8853 158.484 26.828C157.947 25.7707 157.678 24.566 157.678 23.214C157.678 21.8447 157.947 20.64 158.484 19.6C159.039 18.5427 159.784 17.7193 160.72 17.13C161.656 16.5233 162.696 16.22 163.84 16.22C164.586 16.22 165.279 16.3413 165.92 16.584C166.562 16.8267 167.116 17.156 167.584 17.572C168.07 17.988 168.442 18.4473 168.702 18.95C168.98 19.4527 169.118 19.9553 169.118 20.458L168.442 20.302V17.468C168.442 17.1733 168.538 16.9307 168.728 16.74C168.919 16.532 169.17 16.428 169.482 16.428ZM164.126 28.336C164.993 28.336 165.756 28.1107 166.414 27.66C167.09 27.2093 167.61 26.6027 167.974 25.84C168.356 25.06 168.546 24.1847 168.546 23.214C168.546 22.2607 168.356 21.4027 167.974 20.64C167.61 19.86 167.09 19.2533 166.414 18.82C165.756 18.3693 164.993 18.144 164.126 18.144C163.277 18.144 162.514 18.3607 161.838 18.794C161.18 19.2273 160.66 19.8253 160.278 20.588C159.897 21.3507 159.706 22.226 159.706 23.214C159.706 24.1847 159.888 25.06 160.252 25.84C160.634 26.6027 161.154 27.2093 161.812 27.66C162.488 28.1107 163.26 28.336 164.126 28.336ZM173.857 16.636H179.967C180.244 16.636 180.47 16.7313 180.643 16.922C180.834 17.1127 180.929 17.338 180.929 17.598C180.929 17.8753 180.834 18.1093 180.643 18.3C180.47 18.4733 180.244 18.56 179.967 18.56H173.857C173.597 18.56 173.372 18.4647 173.181 18.274C172.99 18.0833 172.895 17.8493 172.895 17.572C172.895 17.312 172.99 17.0953 173.181 16.922C173.372 16.7313 173.597 16.636 173.857 16.636ZM176.587 13.1C176.882 13.1 177.124 13.204 177.315 13.412C177.506 13.6027 177.601 13.8453 177.601 14.14V26.698C177.601 27.114 177.662 27.426 177.783 27.634C177.904 27.842 178.06 27.9893 178.251 28.076C178.459 28.1453 178.658 28.18 178.849 28.18C179.022 28.18 179.17 28.154 179.291 28.102C179.43 28.0327 179.586 27.998 179.759 27.998C179.932 27.998 180.088 28.0847 180.227 28.258C180.383 28.414 180.461 28.622 180.461 28.882C180.461 29.194 180.279 29.4627 179.915 29.688C179.551 29.896 179.144 30 178.693 30C178.45 30 178.147 29.9827 177.783 29.948C177.436 29.9133 177.09 29.8007 176.743 29.61C176.396 29.4193 176.102 29.1073 175.859 28.674C175.634 28.2233 175.521 27.5993 175.521 26.802V14.14C175.521 13.8453 175.625 13.6027 175.833 13.412C176.041 13.204 176.292 13.1 176.587 13.1ZM185.824 28.934C185.824 29.2287 185.72 29.48 185.512 29.688C185.322 29.896 185.079 30 184.784 30C184.472 30 184.221 29.896 184.03 29.688C183.84 29.48 183.744 29.2287 183.744 28.934V17.39C183.744 17.0953 183.84 16.8527 184.03 16.662C184.238 16.454 184.49 16.35 184.784 16.35C185.079 16.35 185.322 16.454 185.512 16.662C185.72 16.8527 185.824 17.0953 185.824 17.39V28.934ZM184.784 14.608C184.351 14.608 184.03 14.5213 183.822 14.348C183.614 14.1747 183.51 13.906 183.51 13.542V13.178C183.51 12.814 183.623 12.5453 183.848 12.372C184.074 12.1987 184.394 12.112 184.81 12.112C185.226 12.112 185.538 12.1987 185.746 12.372C185.954 12.5453 186.058 12.814 186.058 13.178V13.542C186.058 13.906 185.946 14.1747 185.72 14.348C185.512 14.5213 185.2 14.608 184.784 14.608ZM202.327 23.24C202.327 24.592 202.023 25.7967 201.417 26.854C200.827 27.9113 200.021 28.7433 198.999 29.35C197.993 29.9567 196.858 30.26 195.593 30.26C194.327 30.26 193.183 29.9567 192.161 29.35C191.138 28.7433 190.323 27.9113 189.717 26.854C189.127 25.7967 188.833 24.592 188.833 23.24C188.833 21.888 189.127 20.6833 189.717 19.626C190.323 18.5687 191.138 17.7367 192.161 17.13C193.183 16.5233 194.327 16.22 195.593 16.22C196.858 16.22 197.993 16.5233 198.999 17.13C200.021 17.7367 200.827 18.5687 201.417 19.626C202.023 20.6833 202.327 21.888 202.327 23.24ZM200.247 23.24C200.247 22.2347 200.039 21.3507 199.623 20.588C199.224 19.8253 198.669 19.2273 197.959 18.794C197.265 18.3607 196.477 18.144 195.593 18.144C194.709 18.144 193.911 18.3607 193.201 18.794C192.507 19.2273 191.953 19.8253 191.537 20.588C191.121 21.3507 190.913 22.2347 190.913 23.24C190.913 24.228 191.121 25.1033 191.537 25.866C191.953 26.6287 192.507 27.2353 193.201 27.686C193.911 28.1193 194.709 28.336 195.593 28.336C196.477 28.336 197.265 28.1193 197.959 27.686C198.669 27.2353 199.224 26.6287 199.623 25.866C200.039 25.1033 200.247 24.228 200.247 23.24ZM212.137 16.22C213.316 16.22 214.243 16.4627 214.919 16.948C215.595 17.4333 216.072 18.0833 216.349 18.898C216.644 19.7127 216.791 20.6227 216.791 21.628V28.934C216.791 29.2287 216.687 29.48 216.479 29.688C216.289 29.896 216.046 30 215.751 30C215.457 30 215.205 29.896 214.997 29.688C214.807 29.48 214.711 29.2287 214.711 28.934V21.68C214.711 21.0213 214.607 20.432 214.399 19.912C214.209 19.3747 213.879 18.95 213.411 18.638C212.961 18.3087 212.337 18.144 211.539 18.144C210.811 18.144 210.144 18.3087 209.537 18.638C208.931 18.95 208.445 19.3747 208.081 19.912C207.717 20.432 207.535 21.0213 207.535 21.68V28.934C207.535 29.2287 207.431 29.48 207.223 29.688C207.033 29.896 206.79 30 206.495 30C206.201 30 205.949 29.896 205.741 29.688C205.551 29.48 205.455 29.2287 205.455 28.934V17.598C205.455 17.3033 205.551 17.0607 205.741 16.87C205.949 16.662 206.201 16.558 206.495 16.558C206.807 16.558 207.059 16.662 207.249 16.87C207.44 17.0607 207.535 17.3033 207.535 17.598V19.444L207.015 20.016C207.102 19.5653 207.301 19.1147 207.613 18.664C207.925 18.196 208.315 17.78 208.783 17.416C209.251 17.052 209.771 16.766 210.343 16.558C210.915 16.3327 211.513 16.22 212.137 16.22Z" fill="url(#paint1_linear_1_146)"/>
<defs>
<linearGradient id="paint0_linear_1_146" x1="-17.3913" y1="26.9566" x2="62.2933" y2="8.22383" gradientUnits="userSpaceOnUse">
<stop stop-color="#2F79CB"/>
<stop offset="1" stop-color="#AF51C5"/>
</linearGradient>
<linearGradient id="paint1_linear_1_146" x1="108.39" y1="74.8529" x2="199.503" y2="87.3278" gradientUnits="userSpaceOnUse">
<stop stop-color="#2F79CB"/>
<stop offset="1" stop-color="#AF51C5"/>
</linearGradient>
</defs>
</svg>
